0
SECTION
2
HEADER
9
$INSUNITS
70
4
9
$ACADVER
1
AC1014
9
$HANDSEED
5
FFFF
0
ENDSEC
0
SECTION
2
TABLES
0
TABLE
2
VPORT
5
8
100
AcDbSymbolTable
0
ENDTAB
0
TABLE
2
LTYPE
5
5
100
AcDbSymbolTable
0
LTYPE
5
14
100
AcDbSymbolTableRecord
100
AcDbLinetypeTableRecord
2
BYBLOCK
70
0
0
LTYPE
5
15
100
AcDbSymbolTableRecord
100
AcDbLinetypeTableRecord
2
BYLAYER
70
0
0
ENDTAB
0
TABLE
2
LAYER
5
2
100
AcDbSymbolTable
70
2
0
LAYER
5
50
100
AcDbSymbolTableRecord
100
AcDbLayerTableRecord
2
0
70
0
6
CONTINUOUS
0
ENDTAB
0
TABLE
2
STYLE
5
3
100
AcDbSymbolTable
70
1
0
STYLE
5
11
100
AcDbSymbolTableRecord
100
AcDbTextStyleTableRecord
2
STANDARD
70
0
0
ENDTAB
0
TABLE
2
VIEW
5
6
100
AcDbSymbolTable
70
0
0
ENDTAB
0
TABLE
2
UCS
5
7
100
AcDbSymbolTable
70
0
0
ENDTAB
0
TABLE
2
APPID
5
9
100
AcDbSymbolTable
70
2
0
APPID
5
12
100
AcDbSymbolTableRecord
100
AcDbRegAppTableRecord
2
ACAD
70
0
0
ENDTAB
0
TABLE
2
DIMSTYLE
5
A
100
AcDbSymbolTable
70
1
0
ENDTAB
0
TABLE
2
BLOCK_RECORD
5
1
100
AcDbSymbolTable
70
1
0
BLOCK_RECORD
5
1F
100
AcDbSymbolTableRecord
100
AcDbBlockTableRecord
2
*MODEL_SPACE
0
BLOCK_RECORD
5
1B
100
AcDbSymbolTableRecord
100
AcDbBlockTableRecord
2
*PAPER_SPACE
0
ENDTAB
0
ENDSEC
0
SECTION
2
BLOCKS
0
BLOCK
5
20
100
AcDbEntity
100
AcDbBlockBegin
2
*MODEL_SPACE
0
ENDBLK
5
21
100
AcDbEntity
100
AcDbBlockEnd
0
BLOCK
5
1C
100
AcDbEntity
100
AcDbBlockBegin
2
*PAPER_SPACE
0
ENDBLK
5
1D
100
AcDbEntity
100
AcDbBlockEnd
0
ENDSEC
0
SECTION
2
ENTITIES
0
LWPOLYLINE
5
100
100
AcDbEntity
8
0
100
AcDbPolyline
90
28
70
1
43
0.0
10
-20.319587122948182
20
121.07268777975034
42
-0.41421356237309492
10
-30.319587122948146
20
111.07268777975037
10
-100.31958712294789
20
111.07268777975038
42
-0.41421356237309631
10
-120.31958712294782
20
131.0726877797504
10
-120.31958712294767
20
345.07268777974963
42
-0.41421356237309365
10
-90.31958712294788
20
375.07268777974946
10
-30.319587122948107
20
375.07268777974963
42
-0.41421356237309648
10
-20.319587122948143
20
365.07268777974957
10
-20.319587122948146
20
339.07268777974963
10
-70.319587122947965
20
339.07268777974963
10
-70.319587122947965
20
321.07268777974969
10
-20.31958712294815
20
321.07268777974957
10
-20.319587122948146
20
295.57268777974974
10
-70.319587122947965
20
295.57268777974974
10
-70.319587122947965
20
277.57268777974974
10
-20.31958712294815
20
277.57268777974986
10
-20.319587122948157
20
252.07268777974991
10
-70.319587122947965
20
252.07268777974986
10
-70.319587122947979
20
234.07268777974988
10
-20.31958712294816
20
234.07268777974997
10
-20.319587122948164
20
208.57268777975005
10
-70.319587122947979
20
208.57268777975005
10
-70.319587122947965
20
190.57268777975014
10
-20.319587122948167
20
190.57268777975011
10
-20.319587122948164
20
165.07268777975025
10
-70.319587122947979
20
165.07268777975025
10
-70.319587122947979
20
147.07268777975028
10
-20.319587122948167
20
147.07268777975025
0
LWPOLYLINE
5
101
100
AcDbEntity
8
0
100
AcDbPolyline
90
28
70
1
43
0.0
10
650.58365898277032
20
1273.5090717535259
10
650.58365898277032
20
1291.5090717535259
10
680.58365898277032
20
1291.5090717535259
10
680.58365898277032
20
1309.5090717535256
10
-116.37209949062614
20
1379.2336659516523
10
-116.37209949062608
20
1279.2336659516518
10
429.52828391210107
20
1212.2055270788198
10
429.52828391210096
20
1178.8126164282303
10
-116.37209949062603
20
1111.784477555399
10
-116.37209949062594
20
1011.7844775553989
10
680.58365898277043
20
1081.5090717535256
10
680.58365898277043
20
1099.5090717535259
10
650.58365898277043
20
1099.5090717535256
10
650.58365898277032
20
1117.5090717535256
10
680.58365898277043
20
1117.5090717535256
10
680.58365898277032
20
1143.0090717535259
10
650.58365898277043
20
1143.0090717535259
10
650.58365898277032
20
1161.0090717535256
10
680.58365898277043
20
1161.0090717535259
10
680.58365898277032
20
1186.5090717535259
10
650.58365898277043
20
1186.5090717535256
10
650.58365898277032
20
1204.5090717535256
10
680.58365898277043
20
1204.5090717535256
10
680.58365898277032
20
1230.0090717535259
10
650.58365898277032
20
1230.0090717535256
10
650.58365898277032
20
1248.0090717535256
10
680.58365898277043
20
1248.0090717535259
10
680.58365898277032
20
1273.5090717535259
0
LWPOLYLINE
5
102
100
AcDbEntity
8
0
100
AcDbPolyline
90
4
70
1
43
0.0
10
3.0100489487302435
20
1309.5637109207819
10
4.5788523181880958
20
1327.4952154864332
10
79.293454675068944
20
1320.9585347803588
10
77.724651305611147
20
1303.0270302147073
0
LWPOLYLINE
5
103
100
AcDbEntity
8
0
100
AcDbPolyline
90
4
70
1
43
0.0
10
79.293454675069071
20
1070.0596087266922
10
4.5788523181881402
20
1063.5229280206179
10
3.0100489487303328
20
1081.4544325862691
10
77.724651305611218
20
1087.9911132923435
0
LWPOLYLINE
5
104
100
AcDbEntity
8
0
100
AcDbPolyline
90
26
70
1
43
0.0
10
-116.46897328301725
20
1192.7832466972948
42
-0.41421356237309553
10
-86.468973283016055
20
1222.7832466972936
10
117.53102671698394
20
1222.7832466972854
42
-0.41421356237309398
10
147.53102671698272
20
1192.7832466972845
42
-0.41421356237309398
10
127.53102671698194
20
1172.7832466972852
10
111.53102671698191
20
1172.7832466972857
10
111.53102671698291
20
1197.7832466972857
10
93.531026716982922
20
1197.7832466972864
10
93.531026716981899
20
1172.7832466972864
10
68.031026716981927
20
1172.7832466972875
10
68.031026716982922
20
1197.7832466972875
10
50.031026716982922
20
1197.7832466972882
10
50.031026716981906
20
1172.7832466972882
10
24.531026716981934
20
1172.7832466972891
10
24.531026716982915
20
1197.7832466972891
10
6.5310267169829084
20
1197.78324669729
10
6.5310267169819536
20
1172.78324669729
10
-18.968973283018062
20
1172.7832466972909
10
-18.9689732830171
20
1197.7832466972909
10
-36.968973283017071
20
1197.7832466972916
10
-36.968973283018059
20
1172.7832466972916
10
-62.468973283018045
20
1172.7832466972925
10
-62.468973283017036
20
1197.7832466972925
10
-80.46897328301705
20
1197.7832466972932
10
-80.468973283018087
20
1172.7832466972932
10
-96.46897328301803
20
1172.7832466972941
42
-0.41421356237309398
0
LWPOLYLINE
5
105
100
AcDbEntity
8
0
100
AcDbPolyline
90
28
70
1
43
0.0
10
-70.479953430523494
20
760.25858532677159
10
-70.186851561615981
20
742.26097183791035
10
-100.18287404305168
20
741.77246872306455
10
-99.889772174144156
20
723.7748552342033
10
698.0956788033443
20
667.03668441195714
10
696.46733508719149
20
767.02342601674218
10
149.54788082738554
20
825.15354344442494
10
149.00412946516616
20
858.54202673094687
10
693.74068675019214
20
934.45041333781342
10
692.11234303403944
20
1034.4371549425987
10
-103.6023958469726
20
951.74462609311331
10
-103.30929397806509
20
933.74701260425184
10
-73.313271496629397
20
934.23551571909775
10
-73.020169627722055
20
916.2379022302365
10
-103.01619210915759
20
915.74939911539059
10
-102.60096446153861
20
890.25278000617038
10
-72.604941980102922
20
890.74128312101618
10
-72.311840111195579
20
872.74366963215482
10
-102.30786259263111
20
872.25516651730914
10
-101.89263494501213
20
846.75854740808882
10
-71.896612463576446
20
847.24705052293484
10
-71.603510594669103
20
829.24943703407337
10
-101.59953307610463
20
828.76093391922768
10
-101.18430542848566
20
803.26431481000736
10
-71.18828294704997
20
803.75281792485328
10
-70.895181078142627
20
785.75520443599191
10
-100.89120355957816
20
785.26670132114623
10
-100.47597591195918
20
759.77008221192591
0
LWPOLYLINE
5
106
100
AcDbEntity
8
0
100
AcDbPolyline
90
4
70
1
43
0.0
10
577.59489218625231
20
734.75345061252278
10
576.31828334275178
20
716.79877796552933
10
501.50714731361234
20
722.11798148011496
10
502.78375615711292
20
740.07265412710854
0
LWPOLYLINE
5
107
100
AcDbEntity
8
0
100
AcDbPolyline
90
4
70
1
43
0.0
10
497.4216504173225
20
972.98364236257544
10
572.0199071874174
20
980.73606694221462
10
573.88048908653082
20
962.83248531739207
10
499.28223231643591
20
955.08006073775266
0
LWPOLYLINE
5
108
100
AcDbEntity
8
0
100
AcDbPolyline
90
26
70
1
43
0.0
10
422.90727382208524
20
845.74609829208407
42
-0.41421356237309365
10
452.90727382208593
20
875.74609829208327
10
656.90727382208593
20
875.74609829207816
42
-0.41421356237309781
10
686.90727382208536
20
845.74609829207725
42
-0.41421356237309503
10
666.90727382208479
20
825.74609829207793
10
650.90727382208479
20
825.74609829207816
10
650.90727382208547
20
850.74609829207827
10
632.90727382208536
20
850.74609829207873
10
632.90727382208479
20
825.74609829207873
10
607.40727382208468
20
825.7460982920793
10
607.40727382208536
20
850.7460982920793
10
589.40727382208524
20
850.74609829207986
10
589.40727382208468
20
825.74609829207986
10
563.90727382208479
20
825.74609829208043
10
563.90727382208536
20
850.74609829208043
10
545.90727382208536
20
850.746098292081
10
545.90727382208479
20
825.74609829208089
10
520.40727382208479
20
825.74609829208157
10
520.40727382208536
20
850.74609829208157
10
502.40727382208541
20
850.74609829208214
10
502.40727382208468
20
825.74609829208202
10
476.90727382208473
20
825.74609829208271
10
476.90727382208541
20
850.74609829208271
10
458.90727382208547
20
850.74609829208327
10
458.90727382208473
20
825.74609829208316
10
442.90727382208479
20
825.74609829208362
42
-0.41421356237309709
0
LWPOLYLINE
5
109
100
AcDbEntity
8
0
100
AcDbPolyline
90
14
70
1
43
0.0
10
689.50418729798866
20
574.81642475381227
10
689.90531784850168
20
629.81496195510022
42
0.41421356237309503
10
670.05171543003803
20
649.96029568302743
10
332.3224537455946
20
652.42351618956616
42
0.41421356237309609
10
312.17712001766694
20
632.56991377110262
10
311.77598946715392
20
577.57137656981467
10
329.77551073302999
20
577.44009748055589
10
333.31622151994588
20
614.77256816123042
10
351.23580744666958
20
613.07302698351077
10
347.84378724599969
20
577.30831692650327
10
653.43638951914272
20
575.07948439712368
10
650.56640058495123
20
610.88986627195402
10
668.50886996473787
20
612.32784838429382
10
671.5046660321126
20
574.94770384307094
0
LWPOLYLINE
5
110
100
AcDbEntity
8
0
100
AcDbPolyline
90
14
70
1
43
0.0
10
319.2710190840977
20
540.5711402745693
10
319.27101908409776
20
485.57114027456925
42
0.41421356237309503
10
339.27101908409776
20
465.57114027456942
10
677.0092633697916
20
465.57114027456925
42
0.41421356237309709
10
697.0092633697916
20
485.57114027456925
10
697.00926336979182
20
540.5711402745693
10
679.00926336979182
20
540.5711402745693
10
675.74092301675455
20
503.21383909612877
10
657.80941845110317
20
504.78264246558666
10
660.94050629401158
20
540.5711402745693
10
355.33977615987806
20
540.5711402745693
10
358.47086400278636
20
504.78264246558666
10
340.53935943713498
20
503.21383909612894
10
337.27101908409782
20
540.57114027456942
0
LWPOLYLINE
5
111
100
AcDbEntity
8
0
100
AcDbPolyline
90
40
70
1
43
0.0
10
636.14573740280775
20
189.96675305428641
10
686.14573740280775
20
189.96675305428607
10
686.14573740280753
20
155.96675305428602
10
661.14573740280753
20
155.96675305428619
10
661.1457374028073
20
137.96675305428622
10
686.1457374028073
20
137.96675305428604
10
686.1457374028073
20
129.96675305428604
42
-0.41421356237309293
10
676.1457374028073
20
119.96675305428612
10
606.14573740280707
20
119.96675305428661
42
-0.41421356237309503
10
586.1457374028073
20
139.96675305428676
10
586.14573740280741
20
155.96675305428678
10
616.03157834555975
20
158.58142533671625
10
614.46277497610208
20
176.51292990236772
10
586.14573740280753
20
174.035510130067
10
586.14573740280889
20
365.89799597850657
10
614.46277497610333
20
363.42057620620545
10
616.03157834556134
20
381.35208077185689
10
586.145737402809
20
383.96675305428681
10
586.14573740280912
20
399.96675305428681
42
-0.41421356237309503
10
606.14573740280923
20
419.96675305428664
10
676.14573740280935
20
419.96675305428619
42
-0.41421356237309087
10
686.14573740280912
20
409.96675305428619
10
686.14573740280912
20
401.96675305428607
10
661.14573740280912
20
401.9667530542863
10
661.145737402809
20
383.9667530542863
10
686.145737402809
20
383.96675305428607
10
686.14573740280889
20
349.96675305428607
10
636.14573740280878
20
349.96675305428647
10
636.14573740280866
20
331.96675305428641
10
686.14573740280878
20
331.96675305428596
10
686.14573740280832
20
302.6334197209527
10
636.14573740280844
20
302.6334197209531
10
636.14573740280832
20
284.63341972095304
10
686.14573740280832
20
284.6334197209527
10
686.14573740280798
20
255.30008638761939
10
636.14573740280809
20
255.30008638761973
10
636.14573740280798
20
237.30008638761976
10
686.14573740280798
20
237.30008638761942
10
686.14573740280775
20
207.96675305428604
10
636.14573740280775
20
207.96675305428639
0
LWPOLYLINE
5
112
100
AcDbEntity
8
0
100
AcDbPolyline
90
40
70
1
43
0.0
10
488.04492046215853
20
193.67430167467069
10
538.04492046215853
20
193.67430167466529
10
538.04492046215489
20
159.67430167466526
10
513.04492046215489
20
159.67430167466793
10
513.04492046215285
20
141.67430167466796
10
538.04492046215296
20
141.67430167466526
10
538.04492046215205
20
133.67430167466529
42
-0.41421356237309709
10
528.04492046215091
20
123.67430167466635
10
458.04492046215103
20
123.67430167467396
42
-0.41421356237309453
10
438.04492046215319
20
143.67430167467612
10
438.04492046215489
20
159.67430167467614
10
467.93076140490746
20
162.28897395710263
10
466.36195803545161
20
180.22047852275423
10
438.04492046215682
20
177.74305875045638
10
438.04492046217769
20
369.6055445988959
10
466.3619580354719
20
367.12812482659194
10
467.93076140493162
20
385.05962939224321
10
438.04492046217956
20
387.67430167467626
10
438.04492046218138
20
403.67430167467614
42
-0.41421356237309398
10
458.04492046218348
20
423.67430167467398
10
528.04492046218354
20
423.67430167466642
42
-0.41421356237309709
10
538.0449204621824
20
413.67430167466529
10
538.04492046218149
20
405.67430167466534
10
513.04492046218149
20
405.67430167466802
10
513.04492046217956
20
387.67430167466807
10
538.04492046217956
20
387.67430167466534
10
538.04492046217592
20
353.67430167466534
10
488.04492046217592
20
353.6743016746708
10
488.04492046217399
20
335.67430167467074
10
538.04492046217388
20
335.67430167466523
10
538.04492046217081
20
306.34096834133197
10
488.04492046217081
20
306.34096834133737
10
488.04492046216888
20
288.34096834133737
10
538.04492046216876
20
288.34096834133197
10
538.04492046216569
20
259.0076350079986
10
488.04492046216569
20
259.007635008004
10
488.04492046216365
20
241.00763500800406
10
538.04492046216365
20
241.0076350079986
10
538.04492046216058
20
211.67430167466523
10
488.04492046216058
20
211.67430167467069
0
LWPOLYLINE
5
113
100
AcDbEntity
8
0
100
AcDbPolyline
90
40
70
1
43
0.0
10
362.4011808643761
20
188.92592995816665
10
412.4011808643761
20
188.92592995816977
10
412.40118086437832
20
154.92592995816972
10
387.40118086437826
20
154.92592995816813
10
387.4011808643794
20
136.92592995816818
10
412.4011808643794
20
136.92592995816972
10
412.40118086437985
20
128.92592995816975
42
-0.41421356237309709
10
402.40118086438042
20
118.92592995816911
10
332.40118086438059
20
118.92592995816477
42
-0.41421356237309553
10
312.40118086437923
20
138.92592995816352
10
312.40118086437826
20
154.92592995816355
10
342.28702180713043
20
157.54060224059509
10
340.71821843767157
20
175.47210680624647
10
312.40118086437712
20
172.99468703394379
10
312.40118086436519
20
364.85717288238334
10
340.71821843765986
20
362.37975311008415
10
342.28702180711662
20
380.3112576757357
10
312.40118086436411
20
382.92592995816358
10
312.4011808643632
20
398.92592995816358
42
-0.41421356237309398
10
332.40118086436183
20
418.92592995816472
10
402.40118086436189
20
418.92592995816921
42
-0.41421356237309503
10
412.40118086436246
20
408.92592995816977
10
412.40118086436303
20
400.92592995816977
10
387.40118086436297
20
400.92592995816824
10
387.40118086436411
20
382.92592995816824
10
412.40118086436411
20
382.92592995816983
10
412.40118086436621
20
348.92592995816983
10
362.40118086436621
20
348.92592995816671
10
362.40118086436729
20
330.92592995816665
10
412.40118086436735
20
330.92592995816972
10
412.40118086436917
20
301.5925966248364
10
362.40118086436917
20
301.59259662483333
10
362.4011808643703
20
283.59259662483328
10
412.4011808643703
20
283.5925966248364
10
412.40118086437207
20
254.25926329150303
10
362.40118086437207
20
254.25926329149996
10
362.4011808643732
20
236.25926329149996
10
412.4011808643732
20
236.25926329150306
10
412.40118086437508
20
206.92592995816969
10
362.40118086437508
20
206.92592995816659
0
LWPOLYLINE
5
114
100
AcDbEntity
8
0
100
AcDbPolyline
90
28
70
1
43
0.0
10
300.4659201198383
20
417.31101273109789
42
-0.41421356237309503
10
290.4659201198383
20
407.31101273109789
10
220.4659201198383
20
407.31101273109789
42
-0.41421356237309503
10
200.4659201198383
20
427.31101273109789
10
200.46592011983824
20
641.31101273109789
42
-0.41421356237309503
10
230.46592011983824
20
671.31101273109789
10
290.4659201198383
20
671.31101273109789
42
-0.41421356237309503
10
300.4659201198383
20
661.31101273109789
10
300.4659201198383
20
635.31101273109789
10
250.4659201198383
20
635.31101273109789
10
250.46592011983833
20
617.31101273109789
10
300.4659201198383
20
617.31101273109789
10
300.4659201198383
20
591.81101273109778
10
250.46592011983833
20
591.81101273109789
10
250.46592011983833
20
573.81101273109789
10
300.4659201198383
20
573.81101273109789
10
300.4659201198383
20
548.31101273109789
10
250.46592011983833
20
548.31101273109789
10
250.46592011983833
20
530.31101273109789
10
300.4659201198383
20
530.31101273109789
10
300.4659201198383
20
504.81101273109789
10
250.46592011983833
20
504.81101273109789
10
250.46592011983833
20
486.81101273109789
10
300.4659201198383
20
486.81101273109789
10
300.4659201198383
20
461.31101273109783
10
250.46592011983833
20
461.31101273109789
10
250.46592011983833
20
443.31101273109789
10
300.4659201198383
20
443.31101273109789
0
LWPOLYLINE
5
115
100
AcDbEntity
8
0
100
AcDbPolyline
90
28
70
1
43
0.0
10
260.21596764282799
20
123.13142883434614
42
-0.41421356237309503
10
250.21596764282802
20
113.13142883434614
10
180.21596764282793
20
113.13142883434621
42
-0.41421356237309453
10
160.21596764282799
20
133.13142883434622
10
160.2159676428281
20
347.13142883434637
42
-0.41421356237309503
10
190.2159676428281
20
377.13142883434637
10
250.2159676428281
20
377.1314288343462
42
-0.41421356237309503
10
260.2159676428281
20
367.1314288343462
10
260.2159676428281
20
341.13142883434614
10
210.21596764282808
20
341.13142883434625
10
210.21596764282808
20
323.13142883434631
10
260.2159676428281
20
323.13142883434631
10
260.21596764282805
20
297.63142883434614
10
210.21596764282808
20
297.63142883434625
10
210.21596764282805
20
279.63142883434625
10
260.2159676428281
20
279.63142883434625
10
260.21596764282805
20
254.13142883434614
10
210.21596764282805
20
254.13142883434625
10
210.21596764282805
20
236.13142883434622
10
260.21596764282805
20
236.13142883434625
10
260.21596764282799
20
210.63142883434611
10
210.21596764282805
20
210.63142883434622
10
210.21596764282805
20
192.63142883434625
10
260.21596764282805
20
192.63142883434625
10
260.21596764282799
20
167.13142883434611
10
210.21596764282805
20
167.13142883434628
10
210.21596764282802
20
149.13142883434628
10
260.21596764282799
20
149.13142883434611
0
LWPOLYLINE
5
116
100
AcDbEntity
8
0
100
AcDbPolyline
90
40
70
1
43
0.0
10
107.0555808783858
20
463.04132890170968
10
107.05558087838575
20
513.04132890170968
10
141.0555808783858
20
513.04132890170979
10
141.0555808783858
20
488.04132890170968
10
159.0555808783858
20
488.04132890170979
10
159.05558087838577
20
513.04132890170979
10
167.05558087838574
20
513.04132890170968
42
-0.41421356237309503
10
177.05558087838574
20
503.04132890170968
10
177.05558087838583
20
433.04132890170979
42
-0.41421356237309581
10
157.05558087838585
20
413.04132890170968
10
141.05558087838583
20
413.04132890170968
10
138.44090859595613
20
442.92716984446201
10
120.50940403030465
20
441.35836647500417
10
122.98682380260561
20
413.04132890170968
10
-68.875662045833906
20
413.04132890170956
10
-66.398242273533015
20
441.35836647500406
10
-84.329746839184438
20
442.9271698444619
10
-86.94441912161416
20
413.04132890170945
10
-102.94441912161416
20
413.04132890170945
42
-0.41421356237309531
10
-122.94441912161417
20
433.04132890170945
10
-122.94441912161423
20
503.04132890170945
42
-0.41421356237309503
10
-112.94441912161423
20
513.04132890170945
10
-104.94441912161422
20
513.04132890170945
10
-104.94441912161422
20
488.04132890170945
10
-86.944419121614231
20
488.04132890170945
10
-86.944419121614246
20
513.04132890170956
10
-52.944419121614239
20
513.04132890170956
10
-52.944419121614189
20
463.04132890170956
10
-34.944419121614196
20
463.04132890170956
10
-34.944419121614217
20
513.04132890170956
10
-5.6110857882808887
20
513.04132890170956
10
-5.6110857882808451
20
463.04132890170956
10
12.388914211719149
20
463.04132890170962
10
12.388914211719122
20
513.04132890170968
10
41.722247545052454
20
513.04132890170968
10
41.722247545052504
20
463.04132890170962
10
59.722247545052454
20
463.04132890170962
10
59.722247545052426
20
513.04132890170968
10
89.055580878385797
20
513.04132890170968
10
89.05558087838584
20
463.04132890170968
0
LWPOLYLINE
5
117
100
AcDbEntity
8
0
100
AcDbPolyline
90
28
70
1
43
0.0
10
115.30660568818467
20
125.98319600834019
42
-0.41421356237309503
10
105.30660568818467
20
115.98319600834019
10
35.306605688184646
20
115.98319600834019
42
-0.41421356237309509
10
15.306605688184643
20
135.98319600834017
10
15.306605688184627
20
349.98319600834031
42
-0.41421356237309515
10
45.306605688184632
20
379.98319600834031
10
105.30660568818462
20
379.98319600834031
42
-0.41421356237309503
10
115.30660568818462
20
369.98319600834031
10
115.30660568818462
20
343.9831960083402
10
65.306605688184632
20
343.98319600834031
10
65.306605688184632
20
325.98319600834026
10
115.30660568818463
20
325.98319600834026
10
115.30660568818463
20
300.48319600834014
10
65.306605688184646
20
300.48319600834026
10
65.306605688184646
20
282.48319600834026
10
115.30660568818463
20
282.48319600834026
10
115.30660568818463
20
256.98319600834014
10
65.306605688184646
20
256.9831960083402
10
65.306605688184646
20
238.98319600834017
10
115.30660568818463
20
238.98319600834026
10
115.30660568818465
20
213.4831960083402
10
65.306605688184661
20
213.4831960083402
10
65.306605688184675
20
195.48319600834023
10
115.30660568818465
20
195.48319600834023
10
115.30660568818465
20
169.9831960083402
10
65.306605688184675
20
169.98319600834026
10
65.306605688184675
20
151.98319600834026
10
115.30660568818467
20
151.98319600834017
0
LWPOLYLINE
5
118
100
AcDbEntity
8
0
100
AcDbPolyline
90
40
70
1
43
0.0
10
114.74872487192989
20
609.2613762537303
10
114.74872487192989
20
659.2613762537303
10
148.74872487192994
20
659.2613762537303
10
148.74872487192999
20
634.26137625373042
10
166.74872487192994
20
634.26137625373042
10
166.74872487192994
20
659.2613762537303
10
174.74872487192988
20
659.2613762537303
42
-0.41421356237309503
10
184.74872487192988
20
649.2613762537303
10
184.74872487192988
20
579.26137625373042
42
-0.41421356237309503
10
164.74872487192988
20
559.26137625373042
10
148.74872487192991
20
559.26137625373042
10
146.13405258950021
20
589.14721719648264
10
128.20254802384878
20
587.57841382702486
10
130.6799677961497
20
559.26137625373042
10
-61.182518052289822
20
559.2613762537303
10
-58.70509827998891
20
587.57841382702486
10
-76.636602845640311
20
589.14721719648264
10
-79.251275128070063
20
559.2613762537303
10
-95.251275128070063
20
559.2613762537303
42
-0.41421356237309503
10
-115.25127512807006
20
579.2613762537303
10
-115.25127512807009
20
649.26137625373019
42
-0.41421356237309503
10
-105.25127512807009
20
659.26137625373019
10
-97.251275128070077
20
659.26137625373019
10
-97.251275128070077
20
634.26137625373019
10
-79.251275128070091
20
634.2613762537303
10
-79.251275128070105
20
659.26137625373019
10
-45.251275128070098
20
659.26137625373019
10
-45.251275128070077
20
609.26137625373019
10
-27.251275128070066
20
609.2613762537303
10
-27.25127512807008
20
659.2613762537303
10
2.0820582052632464
20
659.2613762537303
10
2.0820582052632597
20
609.26137625373042
10
20.082058205263277
20
609.2613762537303
10
20.082058205263262
20
659.2613762537303
10
49.415391538596609
20
659.2613762537303
10
49.415391538596623
20
609.26137625373042
10
67.415391538596566
20
609.2613762537303
10
67.415391538596566
20
659.2613762537303
10
96.748724871929937
20
659.2613762537303
10
96.748724871929966
20
609.26137625373042
0
LWPOLYLINE
5
119
100
AcDbEntity
8
0
100
AcDbPolyline
90
28
70
1
43
0.0
10
-20.319587122948324
20
121.07268777975152
42
-0.41421356237309503
10
-30.319587122948324
20
111.07268777975152
10
-100.31958712294836
20
111.07268777975152
42
-0.41421356237309503
10
-120.31958712294836
20
131.0726877797515
10
-120.31958712294829
20
345.07268777975173
42
-0.41421356237309437
10
-90.319587122948292
20
375.07268777975162
10
-30.319587122948288
20
375.07268777975162
42
-0.41421356237309503
10
-20.319587122948285
20
365.07268777975162
10
-20.319587122948299
20
339.07268777975156
10
-70.319587122948292
20
339.07268777975162
10
-70.319587122948263
20
321.07268777975156
10
-20.319587122948299
20
321.07268777975156
10
-20.319587122948306
20
295.5726877797515
10
-70.319587122948278
20
295.57268777975156
10
-70.319587122948292
20
277.57268777975162
10
-20.319587122948299
20
277.57268777975162
10
-20.319587122948306
20
252.07268777975148
10
-70.319587122948292
20
252.07268777975156
10
-70.319587122948292
20
234.0726877797515
10
-20.319587122948313
20
234.07268777975159
10
-20.319587122948324
20
208.57268777975153
10
-70.31958712294832
20
208.57268777975153
10
-70.31958712294832
20
190.57268777975156
10
-20.319587122948313
20
190.57268777975156
10
-20.319587122948324
20
165.07268777975153
10
-70.319587122948292
20
165.07268777975159
10
-70.31958712294832
20
147.07268777975159
10
-20.319587122948327
20
147.0726877797515
0
ENDSEC
0
SECTION
2
OBJECTS
0
DICTIONARY
5
C
100
AcDbDictionary
3
ACAD_GROUP
350
D
3
ACAD_MLINESTYLE
350
17
0
DICTIONARY
5
D
100
AcDbDictionary
0
DICTIONARY
5
1A
330
C
100
AcDbDictionary
0
DICTIONARY
5
17
100
AcDbDictionary
0
ENDSEC
0
EOF
